<svg xmlns="http://www.w3.org/2000/svg" viewBox="220 131 760 760">
<circle cx="600" cy="479" r="336" fill="#FEFEFE"/>
<path fill="#4A4982" d="M568 141c2 3 2 3 2.414 6.484q.122 2.133.211 4.266l.108 2.299c.102 2.317.186 4.633.267 6.951l.164 3.86c.504 21.352-5.944 41.584-16.089 60.202-13.242 23.869-31.01 43.864-50.138 63.188l-2.275 2.315-2.135 2.138-1.914 1.927L497 296h-2v2c-1.645 1.691-1.645 1.691-3.812 3.563l-2.145 1.878C487 305 487 305 484 306v2c-1.645 1.691-1.645 1.691-3.812 3.563l-2.145 1.878C476 315 476 315 473 316v2c-2.875 2.625-2.875 2.625-6 5h-2v2c-2.875 2.625-2.875 2.625-6 5h-2v2c-1.398 1.41-1.398 1.41-3.375 3.063-4.212 3.567-8.277 7.27-12.328 11.019C439 348 439 348 436.766 349.074L435 350l-1 3c-1.496 1.473-1.496 1.473-3.437 3.063-5.768 4.893-11.777 10.093-16.231 16.238L413 374h-2l-.684 1.648c-1.728 3.088-3.962 5.397-6.378 7.977-3.353 3.417-3.353 3.417-5.938 7.375h-2l-.937 1.875L393 397h-2l-.805 1.735c-1.254 2.377-2.683 4.373-4.32 6.503l-1.876 2.461-1.999 2.613c-18.661 24.685-38.787 53.817-46.36 84.196-.586 2.283-1.29 4.46-2.077 6.68-4.373 12.91-7.873 27.107-7.563 40.812l.734-2.117 1.016-2.758.984-2.742L330 532c2.14-1.32 2.14-1.32 4-2 2.869 2.567 4.783 4.44 6.188 8.063L341 541l1.063 2.063c.937 1.937.937 1.937 1.312 4.21.722 3.151 1.966 5.483 3.563 8.29 4.68 8.291 4.68 8.291 6.062 12.437l2 2c.688 2.5.688 2.5 1 5l-1 2h2v3h2c2.32 2.42 3.368 4.886 4.438 8 1.245 3.541 2.752 5.462 5.562 8l2 4 2.125 2.125L375 604v2h2v2h2c1.101 8.356 1.1 16.588 1 25h2l-.105-2.395c-.252-10.47 1.115-20.348 3.105-30.605l.422-2.183C387.47 587.652 391.003 579.062 396 570l1.469-2.824C407.15 548.753 419.55 532.876 434 518l2.162-2.228q3.282-3.366 6.588-6.71l2.096-2.135 1.95-1.954 1.73-1.742L450 502h2v-2c1.528-1.396 3.127-2.716 4.75-4l3.07-2.453 1.607-1.28c2.436-1.962 4.812-3.994 7.198-6.017 7.595-6.34 15.48-12.29 23.375-18.25l2.033-1.54c11.289-8.551 22.756-16.844 34.258-25.106C578.758 405.498 578.758 405.498 619 359h2c-1.895 6.518-4.518 12.178-8 18h-2l-.25 1.594c-1.034 3.317-2.858 6.026-4.75 8.906l-1.212 1.864C600.786 395.447 596.45 401.237 592 407c-.677.906-1.354 1.812-2.05 2.746l-1.888 2.504-1.652 2.203L585 416h-2l-.707 1.672c-1.633 2.94-3.686 5.119-5.98 7.578l-2.512 2.703-1.357 1.46c-1.587 1.744-3.117 3.53-4.651 5.321-5.157 5.92-10.821 11.338-16.41 16.844-4.41 4.37-8.645 8.793-12.685 13.505-3.022 3.41-6.314 6.548-9.573 9.73a197.4 197.4 0 0 0-19.234 21.988L508 499h-2l-.805 2.25c-1.179 2.713-2.429 4.498-4.32 6.75-14.864 18.68-24.834 41.555-28.875 65-2.075 14.162-1.785 28.978 1 43l.707 3.746C477.909 639.95 488.856 657.391 502 673l2 2.375c22.383 25.88 55.963 43.012 87.375 55.188l2.684 1.05 2.527.953 2.22.842c2.573.694 4.538.86 7.194.592 2.371-1.065 2.371-1.065 4.668-2.64l2.68-1.728 2.84-1.882 2.953-1.92c2.96-1.932 5.91-3.88 8.859-5.83l4.957-3.25c18.002-11.852 35.45-24.22 51.145-39.043a159 159 0 0 1 7.148-6.27c4.902-4.254 8.78-9.328 12.75-14.437.755-.951 1.51-1.903 2.29-2.883 11.618-14.973 18.884-30.28 21.71-49.117 1.598-19.453-1.9-36.354-10-54-7.155-13.963-17.697-26.67-27.866-38.509C669.747 488.684 653.918 463.197 648 432l-.898-4.465C645 416.886 645 416.886 645 412h2c.315 1.256.63 2.511.953 3.805 3.446 13.58 7.042 24.343 15.339 35.752l1.442 2.002 1.32 1.79C667 457 667 457 667 460l1.71.695c2.898 1.652 4.704 3.688 6.915 6.18l2.352 2.617C680 472 680 472 681.023 474.195L682 476c1.316.7 2.653 1.362 4 2a153 153 0 0 1 5 4.563c5.675 5.275 11.723 9.898 18 14.437l4.691 3.418q2.466 1.793 4.934 3.582l2.408 1.747 2.256 1.628 2.022 1.46c1.69 1.224 1.69 1.224 3.689 2.165v2l1.766.348c2.4.7 3.963 1.634 5.984 3.09l1.86 1.308L740 519v2l2 .602c4.213 1.963 7.458 4.793 11 7.773l2.263 1.885A397 397 0 0 1 775 549l1.694 1.605c1.475 1.426 2.895 2.907 4.306 4.395v2h2c2.125 2.375 2.125 2.375 4 5v2h2c2.608 3.474 4.74 7.293 7 11q1.122 1.755 2.25 3.508c4.12 6.497 7.628 12.98 10.375 20.18l.787 2.033c.989 2.747 1.654 4.816 1.236 7.736L810 610h2l-1 5h2c2.733 18.521 2.085 35.244-4 53.125l-.828 2.457a2466 2466 0 0 1-1.524 4.504q-.83 2.455-1.648 4.914l2.125-.687L810 679l2.625 1.438c4.063 1.88 7.068 2.044 11.5 1.917 6.222-.769 11.54-3.504 16.875-6.668l3-1.687 2 1c.238 3.474.1 5.757-1.242 9l-1.633 3c-2.126 3.944-3.81 7.712-5.125 12 4.004-3.5 6.248-7.579 8.75-12.187l1.32-2.41c12.69-23.43 12.69-23.43 19.508-48.973.422-2.43.422-2.43 1.371-5.223 1.235-3.768 1.945-7.493 2.614-11.394l.38-2.096c5.383-30.8 2.433-64.009-8.209-93.397C863 521 863 521 863 518l-2-1-.805-2.453c-1.593-4.73-3.942-8.921-6.32-13.297q-1.384-2.551-2.758-5.11l-1.23-2.264C849 492 849 492 849 490h-2l-.707-1.477c-5.797-11.267-14.463-20.852-23.035-30.082a203 203 0 0 1-5.633-6.378c-7.181-8.23-14.878-15.675-23.527-22.336-2.757-2.27-4.815-4.988-7.098-7.727a190 190 0 0 0-7.305-5.68c-2.9-2.497-5.25-5.2-7.732-8.103-3.578-4.04-7.486-7.753-11.338-11.53-6.678-6.612-12.911-13.219-18.625-20.687q-1.999-2.438-4-4.875c-23.266-29.221-40.155-65.292-47-102.125v-4l-2-1c-.852-2.582-.852-2.582-1.625-5.812-.26-1.059-.52-2.117-.79-3.208C686 252 686 252 686 248h-2l-.836-3.527c-1.029-4.1-2.31-8.077-3.789-12.036l-.764-2.055c-2.24-5.815-5.018-11.258-8.07-16.685C668 209.174 668 209.174 668 207h-2l-.88-1.762a397 397 0 0 0-33.39-54.962l-1.402-1.94-1.222-1.67c-1.21-1.821-2.166-3.695-3.106-5.666 8.196-.213 15.975.313 24.063 1.625l3.382.54c34.967 5.772 69.513 15.479 101.016 31.987 3.416 1.784 6.874 3.44 10.351 5.098 8.324 4.152 16.108 9.17 23.89 14.25a477 477 0 0 0 4.874 3.136l2.498 1.61 2.28 1.455L800 202v2l2.313.875C805 206 805 206 808 208v2l2.25.813c2.64 1.14 4.606 2.28 6.75 4.187v2l1.813.875C821 219 821 219 824 221v2l1.771.81c14.736 7.87 28.14 25.106 38.229 38.19a658 658 0 0 0 2.703 3.258C878.98 280.062 889.481 296.305 899 313l1.902 3.305c24.916 44.94 41.09 99.056 41.301 150.668l.017 3.398q.014 3.55.02 7.102c.01 3.528.04 7.056.072 10.584C942.583 546.672 925.777 604.12 897 655c-6.928 11.858-14.66 23.098-23 34l-1.37 1.808c-5.708 7.509-11.69 14.634-18.138 21.516a219 219 0 0 0-6.117 6.864c-5.635 6.482-11.776 12.428-18.297 18.011-2.299 1.993-4.528 4.053-6.765 6.114C817.474 748.565 811.31 753.336 805 758l-1.886 1.402C791.263 768.162 778.821 775.747 766 783l-2.265 1.285c-35.58 19.997-74.805 31.592-114.735 39.028l-2.77.52c-4.49.807-8.652 1.248-13.23 1.167l-1 1c-2.05.299-4.108.542-6.168.762-19.698 1.86-19.698 1.86-37.832 9.238l-2.383 1.402c-4.38 2.917-7.676 6.503-10.414 10.993-2.346 5.08-3.241 10.021-3.203 15.605 1.138 5.79 2.716 11.074 6 16l-1 3-11-5v-2l-2.078-.715c-10.683-4.699-21.014-13.637-27.883-22.941-5.74-8.621-9.882-17.648-10.601-28.032l-.254-3.574L525 818c-4.693-1.653-9.45-2.96-14.25-4.258-9.812-2.668-19.517-5.535-29.125-8.867l-2.748-.946c-6.47-2.287-12.667-5.015-18.877-7.929l-2.749-1.268C439.957 786.74 423.666 777.864 408 767l-1.985-1.368c-11.773-8.126-22.862-16.632-33.433-26.296a361 361 0 0 0-6.355-5.594c-4.39-3.834-8.547-7.87-12.664-11.992l-2.262-2.264c-4.723-4.776-9.14-9.617-13.281-14.908-2.181-2.784-4.47-5.455-6.77-8.14C310.507 671.462 293.414 642.4 282 612a864 864 0 0 0-2.437-5.625C268.977 580.841 262.579 553.362 259 526l-.261-1.962c-1.77-13.664-2.1-27.21-2.051-40.976l.005-3.26c.048-16.77.608-33.218 3.307-49.802l.52-3.244C265.734 395.27 274.5 363.535 289 335q.965-1.96 1.926-3.922A889 889 0 0 1 297 319l.956-1.89c4.976-9.799 10.66-19.004 16.745-28.15a477 477 0 0 0 3.533-5.42c3.353-5.16 6.787-9.958 10.938-14.5 2.098-2.341 4.05-4.775 6.015-7.228C348.753 245.2 364.026 229.13 381 216a771 771 0 0 0 3.367-2.777c15.44-12.739 32.34-23.201 49.633-33.223l1.921-1.124C469.426 159.465 507.971 148.825 546 143l2.343-.36c13.773-2.068 13.773-2.068 19.657-1.64"/>
<path fill="#19333A" d="M626 141c8.196-.213 15.975.313 24.063 1.625l3.382.54c34.967 5.772 69.513 15.479 101.016 31.987 3.416 1.784 6.874 3.44 10.351 5.098 8.324 4.152 16.108 9.17 23.89 14.25a477 477 0 0 0 4.874 3.136l2.498 1.61 2.28 1.455L800 202v2l2.313.875C805 206 805 206 808 208v2l2.25.813c2.64 1.14 4.606 2.28 6.75 4.187v2l1.813.875C821 219 821 219 824 221v2l1.771.81c14.736 7.87 28.14 25.106 38.229 38.19a658 658 0 0 0 2.703 3.258C878.98 280.062 889.481 296.305 899 313l1.902 3.305c24.916 44.94 41.09 99.056 41.301 150.668l.017 3.398q.014 3.55.02 7.102c.01 3.528.04 7.056.072 10.584C942.583 546.672 925.777 604.12 897 655c-6.928 11.858-14.66 23.098-23 34l-1.37 1.808c-5.708 7.509-11.69 14.634-18.138 21.516a219 219 0 0 0-6.117 6.864c-5.635 6.482-11.776 12.428-18.297 18.011-2.299 1.993-4.528 4.053-6.765 6.114C817.474 748.565 811.31 753.336 805 758l-1.886 1.402C791.263 768.162 778.821 775.747 766 783l-2.265 1.285C741.174 796.965 706.45 816 680 816v-2l1.857-.623c15.594-5.259 30.74-10.843 45.323-18.53C729 794 729 794 731 794v-2l3.29-1.61 4.335-2.14 2.16-1.055c3.344-1.656 6.538-3.34 9.613-5.46L753 780h2v-2c5.75-3 5.75-3 8-3l1-3c2.06-1.428 4.1-2.723 6.25-4 6.985-4.312 13.07-9.284 19.227-14.687 2.328-2.007 4.742-3.902 7.148-5.813 8.3-6.775 15.785-14.192 22.035-22.918L820 723h2l.715-1.652c2.199-4.017 5.337-7.309 8.289-10.79 2.15-2.46 2.15-2.46 2.996-5.558h2l.816-2.25c1.14-2.648 2.366-4.484 4.121-6.75 14.17-19.897 24.507-45.01 29.063-69l.355-1.86q.615-3.255 1.207-6.515l.386-2.071c5.452-30.699 2.393-63.942-8.214-93.234C863 521 863 521 863 518l-2-1-.805-2.453c-1.593-4.73-3.942-8.921-6.32-13.297q-1.384-2.551-2.758-5.11l-1.23-2.264C849 492 849 492 849 490h-2l-.707-1.477c-5.797-11.267-14.463-20.852-23.035-30.082a203 203 0 0 1-5.633-6.378c-7.181-8.23-14.878-15.675-23.527-22.336-2.757-2.27-4.815-4.988-7.098-7.727a190 190 0 0 0-7.305-5.68c-2.9-2.497-5.25-5.2-7.732-8.103-3.578-4.04-7.486-7.753-11.338-11.53-6.678-6.612-12.911-13.219-18.625-20.687q-1.999-2.438-4-4.875c-23.266-29.221-40.155-65.292-47-102.125v-4l-2-1c-.852-2.582-.852-2.582-1.625-5.812-.39-1.588-.39-1.588-.79-3.208C686 252 686 252 686 248h-2l-.836-3.527c-1.029-4.1-2.31-8.077-3.789-12.036l-.764-2.055c-2.24-5.815-5.018-11.258-8.07-16.685C668 209.174 668 209.174 668 207h-2l-.88-1.762a397 397 0 0 0-33.39-54.962l-1.402-1.94-1.222-1.67c-1.21-1.821-2.166-3.695-3.106-5.666M568 141c2 3 2 3 2.414 6.484q.122 2.133.211 4.266l.108 2.299c.102 2.317.186 4.633.267 6.951l.164 3.86c.504 21.352-5.944 41.584-16.089 60.202-13.242 23.869-31.01 43.864-50.138 63.188l-2.275 2.315-2.135 2.138-1.914 1.927L497 296h-2v2c-1.645 1.691-1.645 1.691-3.812 3.563l-2.145 1.878C487 305 487 305 484 306v2c-1.645 1.691-1.645 1.691-3.812 3.563l-2.145 1.878C476 315 476 315 473 316v2c-2.875 2.625-2.875 2.625-6 5h-2v2c-2.875 2.625-2.875 2.625-6 5h-2v2c-1.398 1.41-1.398 1.41-3.375 3.063-4.212 3.567-8.277 7.27-12.328 11.019C439 348 439 348 436.766 349.074L435 350l-1 3c-1.496 1.473-1.496 1.473-3.437 3.063-5.768 4.893-11.777 10.093-16.231 16.238L413 374h-2l-.684 1.648c-1.728 3.088-3.962 5.397-6.378 7.977-3.353 3.417-3.353 3.417-5.938 7.375h-2l-.937 1.875L393 397h-2l-.805 1.735c-1.254 2.377-2.683 4.373-4.32 6.503l-1.876 2.461-1.999 2.613c-18.661 24.685-38.787 53.817-46.36 84.196-.586 2.283-1.29 4.46-2.077 6.68-4.972 14.68-7.23 29.6-8.317 45.03C325 549 325 549 324.457 552.255c-.545 4.466-.443 8.7-.207 13.183l.144 2.755c1.278 21.728 4.125 44.014 11.907 64.468.763 2.554.827 4.69.699 7.34h2l1.066 2.824c3.798 9.871 8.042 19.338 13.934 28.176v3h2c1.305 1.844 1.305 1.844 2.875 4.5 7.121 11.48 15.353 22.061 24.652 31.852a116 116 0 0 1 5.114 5.843c2.268 2.883 2.268 2.883 5.171 5.055L396 723v2h2v2l1.621.672c3.186 1.778 5.737 4.16 8.442 6.578 7.917 6.934 16.334 13.122 24.873 19.264 1.71 1.23 3.411 2.472 5.11 3.716 4.721 3.406 9.557 6.314 14.7 9.036 4.887 2.604 9.707 5.328 14.533 8.044 9.664 5.399 19.606 10.075 29.721 14.565l3.568 1.592c7.677 3.396 15.394 6.603 23.315 9.39 1.737.633 3.433 1.378 5.117 2.143 1 3 1 3 .547 5.664l-.797 2.961-.766 2.977L527 816c-3 1-3 1-5.406.614l-2.88-.731-3.259-.827-3.518-.931-3.623-.95c-8.545-2.3-16.95-4.911-25.314-7.8l-3.156-1.09c-6.796-2.409-13.324-5.213-19.844-8.285l-2.743-1.266C439.96 786.743 423.667 777.864 408 767l-1.985-1.368c-11.773-8.126-22.862-16.632-33.433-26.296a361 361 0 0 0-6.355-5.594c-4.39-3.834-8.547-7.87-12.664-11.992l-2.262-2.264c-4.723-4.776-9.14-9.617-13.281-14.908-2.181-2.784-4.47-5.455-6.77-8.14C310.507 671.462 293.414 642.4 282 612a864 864 0 0 0-2.437-5.625C268.977 580.841 262.579 553.362 259 526l-.261-1.962c-1.77-13.664-2.1-27.21-2.051-40.976l.005-3.26c.048-16.77.608-33.218 3.307-49.802l.52-3.244C265.734 395.27 274.5 363.535 289 335q.965-1.96 1.926-3.922A889 889 0 0 1 297 319l.956-1.89c4.976-9.799 10.66-19.004 16.745-28.15a477 477 0 0 0 3.533-5.42c3.353-5.16 6.787-9.958 10.938-14.5 2.098-2.341 4.05-4.775 6.015-7.228C348.753 245.2 364.026 229.13 381 216a771 771 0 0 0 3.367-2.777c15.44-12.739 32.34-23.201 49.633-33.223l1.921-1.124C469.426 159.465 507.971 148.825 546 143l2.343-.36c13.773-2.068 13.773-2.068 19.657-1.64"/>
<path fill="#C4B9E5" d="M589 134c1.773.207 1.773.207 4 1 1.79 2.012 1.79 2.012 3.625 4.688l2.117 3.05L601 146l3.522 4.713c10.33 13.981 20.557 30.362 25.738 47.032.767 2.338 1.682 4.567 2.638 6.833 11.18 27.763 13.851 60.16 9.97 89.629-1.722 11.51-4.418 22.548-8.124 33.574a361 361 0 0 0-2.1 6.504c-6.162 19.405-6.162 19.405-13.015 26.043-2.14 2.197-3.833 4.623-5.629 7.11-4.882 6.609-10.303 12.65-16 18.562l-1.678 1.745c-7.383 7.63-14.93 14.728-23.322 21.255a1640 1640 0 0 0-3.125 2.5c-16.928 13.518-34.649 26.044-52.266 38.64-11.713 8.392-23.198 17.063-34.609 25.86l-2.064 1.587c-7.337 5.652-14.474 11.476-21.408 17.62-2.503 2.192-4.336 3.729-7.528 4.793v2c-1.436 1.419-1.436 1.419-3.441 3.078C425.229 524.933 405.09 549.72 393 578l-1.48 3.262c-1.768 4.14-2.95 8.388-4.082 12.738l-.658 2.522c-3.027 12.005-4.058 24.144-4.78 36.478h-2l-.184-3.105-.253-4.082-.12-2.042c-.184-2.91-.433-5.722-1.005-8.583-.53-2.647-.104-4.597.562-7.188h-2v-2h-2a283 283 0 0 1-5-5h-1l-.812-3.375L367 594l-3-2a101 101 0 0 1-3-6l-1.187-2.25C359 582 359 582 359 580h-2v-3h-2l.25-2.125c-.05-3.061-.05-3.061-2.125-5.937L351 566a136 136 0 0 1-2-4l-.965-1.93q-1.012-2.026-2.02-4.054a205 205 0 0 0-2.702-5.141c-1.378-3.017-1.886-5.6-2.313-8.875-.369-2.232-.369-2.232-1-4l-2-1-.312-1.875L337 533c-2.48-1.771-2.48-1.771-5-3l-1 3-3 9h-2l.527 1.547c.64 3.323.316 6.336.036 9.703l-.31 3.828L326 560h-1c-.03-3.604-.047-7.208-.062-10.812l-.026-3.045c-.111-34.619 13.607-67.642 30.451-97.304 19.354-33.57 19.354-33.57 30.637-40.839 1.711-1.64 1.711-1.64 3.125-3.437 12.16-14.37 25.315-27.294 40.254-38.754 3.204-2.463 6.321-5.018 9.433-7.594 8.06-6.658 16.417-12.733 25.004-18.688 3.737-2.613 7.429-5.289 11.122-7.964l2.259-1.637 4.532-3.285a1901 1901 0 0 1 6.81-4.895c13.267-9.511 26.375-19.225 38.938-29.656q2.535-2.1 5.109-4.149c22.871-18.277 45.198-40.587 56.2-68.273 7.139-19.04 10.528-39.12 7.341-59.36-2.359-13.544-2.359-13.544-7.127-26.308"/>
<path fill="#C1E5D2" d="M666 207h2c4.855 8.697 9.403 17.412 13.063 26.688l.904 2.245c1.595 4.176 2.37 7.523 2.033 12.067h2c.38 1.576.38 1.576.77 3.184l1.043 4.254.501 2.083c.9 3.653 1.905 7.224 3.124 10.784 1.493 4.373 2.71 8.796 3.907 13.258 5.12 18.997 11.34 37.083 20.655 54.437.478.945.956 1.89 1.45 2.863 12.95 25.047 32.696 46.74 52.743 66.256l2.67 2.62 2.416 2.344L777 412v2l1.75.813c2.306 1.216 4.27 2.49 6.25 4.187v2l1.813.813c2.185 1.186 3.6 2.283 5.187 4.187v2l1.792.818c2.194 1.174 3.724 2.388 5.528 4.088l1.858 1.74 1.947 1.854 2.018 1.905c7.967 7.55 15.824 15.153 22.857 23.595l1.467 1.76C844.282 481.6 844.282 481.6 847 487v3h2q3.196 6.057 6.375 12.125l1.828 3.46 1.758 3.36 1.619 3.079c1.408 2.95 2.446 5.858 3.42 8.976q.682 1.968 1.367 3.934c10.91 32.187 12.672 66.953 6.133 100.254-.966 4.675-2.15 9.233-3.5 13.812l-.895 3.07c-5.035 16.757-11.955 32.15-20.855 47.18l-1.104 1.878c-2.056 3.394-4.21 6.2-7.146 8.872l-1-2c.89-2.355.89-2.355 2.25-5.187l1.406-2.989L842 687c1.814-3.943 3.345-7.676 4-12-3.56.667-6.206 2.172-9.312 4-4.331 2.401-7.664 3.81-12.688 4l-1.992.148c-4.92.242-7.704-.996-12.008-3.148-3.279.211-3.279.211-6 1l1.25-3.687c7.082-21.28 9.393-40.04 7.75-62.313h-2l1-5h-2l-.187-2.687c-2.098-13.827-10.475-27.089-18.625-38.196L789 566v-2h-2c-2.125-2.375-2.125-2.375-4-5v-2h-2c-1.48-1.504-1.48-1.504-3.187-3.562-6.605-7.731-13.855-14.112-21.813-20.438l-1.832-1.459q-2.862-2.275-5.73-4.541l-1.843-1.458c-3.146-2.501-3.146-2.501-6.595-4.542v-2l-2.312-.812c-2.611-1.154-3.762-2.174-5.688-4.188l-3-1v-2l-2.031-.656c-3.923-1.776-7.07-4.225-10.469-6.844l-2.132-1.625a1654 1654 0 0 1-4.31-3.3 632 632 0 0 0-5.609-4.24C695.354 487.498 687.014 480.08 679 472l-1.844-1.844q-1.734-1.734-3.46-3.476a131 131 0 0 0-4.321-4.055c-2.586-2.858-4.158-5.672-5.93-9.07-1.602-2.833-3.466-5.362-5.383-7.993-3.406-5.031-5.58-9.992-7.5-15.75l-.747-2.23c-1.626-5.186-2.35-10.169-2.815-15.582h-2c-.794-38.88 5.748-72.248 17.904-109.175 8.066-24.548 12.213-49.871 7.807-75.669-1.088-4.83-2.44-9.565-3.906-14.293C666 210 666 210 666 207"/>
<path fill="#276F6C" d="M645 412h2c.315 1.256.63 2.511.953 3.805 3.446 13.58 7.042 24.343 15.339 35.752l1.442 2.002 1.32 1.79C667 457 667 457 667 460l1.71.695c2.898 1.652 4.704 3.688 6.915 6.18l2.352 2.617C680 472 680 472 681.023 474.195L682 476c1.316.7 2.653 1.362 4 2a153 153 0 0 1 5 4.563c5.675 5.275 11.723 9.898 18 14.437l4.691 3.418q2.466 1.793 4.934 3.582l2.408 1.747 2.256 1.628 2.022 1.46c1.69 1.224 1.69 1.224 3.689 2.165v2l1.766.348c2.4.7 3.963 1.634 5.984 3.09l1.86 1.308L740 519v2l2 .602c4.213 1.963 7.458 4.793 11 7.773l2.263 1.885A397 397 0 0 1 775 549l1.694 1.605c1.475 1.426 2.895 2.907 4.306 4.395v2h2c2.125 2.375 2.125 2.375 4 5v2h2c2.608 3.474 4.74 7.293 7 11q1.122 1.755 2.25 3.508c4.12 6.497 7.628 12.98 10.375 20.18l.787 2.033c.989 2.747 1.654 4.816 1.236 7.736L810 610h2l-1 5h2c2.733 18.521 2.085 35.244-4 53.125l-.828 2.457a2466 2466 0 0 1-1.524 4.504q-.83 2.455-1.648 4.914l2.125-.687L810 679l2.625 1.438c4.063 1.88 7.068 2.044 11.5 1.917 6.222-.769 11.54-3.504 16.875-6.668l3-1.687 2 1c.238 3.474.1 5.757-1.242 9l-1.633 3c-2.129 3.949-3.802 7.711-5.125 12l-2 6h-2l-.25 1.68c-.998 3.086-2.666 4.963-4.75 7.445l-2.46 2.934a524 524 0 0 1-9.419 10.601 327 327 0 0 0-5.683 6.465c-6.84 7.81-14.335 14.403-22.438 20.875q-1.846 1.512-3.687 3.027c-6.18 5.055-12.204 9.888-19.262 13.692-2.187 1.258-2.187 1.258-4.149 3.39C760 777 760 777 757.25 777.75L755 778v2c-1.497 1.113-1.497 1.113-3.578 2.313l-2.27 1.32L746.75 785l-2.355 1.367A385 385 0 0 1 738 790l-2.07 1.145C734 792 734 792 731 792v2c-12.012 6.074-24.068 11.647-36.75 16.188-1.076.385-2.153.771-3.261 1.17C683.426 814 683.426 814 680 814v2c-7.52 2.804-15.154 4.35-23.021 5.79-2.174.399-4.345.81-6.516 1.224l-4.193.779-3.794.704c-3.219.466-6.233.52-9.476.503l-1 1c-2.05.299-4.108.542-6.168.762-19.698 1.86-19.698 1.86-37.832 9.238l-2.383 1.402c-4.457 2.969-7.593 6.617-10.43 11.141-1.929 3.992-2.657 8.08-3.187 12.457h-2c-.24-5.233.446-9.155 2.25-14.062l1.266-3.536c1.514-3.47 3.192-6.39 5.484-9.402h2l.723-1.719C587.958 821.146 602.459 814.362 613 808l3.164-1.953c14.262-8.743 29.939-15.144 45.211-21.9q4.754-2.103 9.504-4.213 7.232-3.211 14.465-6.415c11.038-4.895 21.901-10.03 32.656-15.519q3-1.503 6-3c-3.007-.094-3.007-.094-5.937.563-2.84.405-4.402.358-7.063-.563-.125-5.75-.125-5.75 1-8l-3-2 .625-2.187c.615-2.842.615-2.842-.687-5.438-.31-.784-.62-1.567-.938-2.375l2-3c-.309-2.221-.309-2.221-1-5-.388-3.328-.695-6.663-1-10h-2v-2h-2l-1-4-2 1-2-5h-2l-.227-2.082c-.402-2.76-.864-5.28-1.773-7.918-2.834-2.043-2.834-2.043-6-3-1.91-1.646-2.875-2.75-4-5-3.349-.848-3.349-.848-7-1-3.09 1.06-5.442 2.99-8 5l-2-1c4.741-4.285 9.482-8.566 14.313-12.75A146 146 0 0 0 691 671l2.34-2.324c7.317-7.36 14.088-14.9 19.66-23.676l2.031-3.176c7.793-12.635 12.684-27.37 13.305-42.27.294-18.512-3.227-34.68-11.703-51.222-7.405-12.822-16.879-24.642-26.499-35.84C669.747 488.683 653.918 463.196 648 432l-.898-4.465C645 416.886 645 416.886 645 412"/>
<path fill="#85D3CD" d="M478 648c6.156 3.79 9.48 7.963 13.152 14.129 3.074 4.776 6.98 8.736 10.848 12.871a759 759 0 0 1 5.492 6.406c1.617 1.828 1.617 1.828 4.508 3.594v2l1.625.688C516 689 516 689 518.938 691.5c2.772 2.526 2.772 2.526 5.402 3.41 3.146 1.29 5.538 3.023 8.285 5.028 18.132 12.842 38.2 22.673 58.875 30.687l2.662 1.04 2.494.937 2.182.822c2.557.681 4.524.84 7.162.576 2.371-1.065 2.371-1.065 4.668-2.64l2.68-1.728 2.84-1.882 2.953-1.92c2.96-1.932 5.91-3.88 8.859-5.83l4.957-3.25c9.803-6.455 19.395-13.17 28.876-20.088l1.858-1.346 1.682-1.224c2.41-1.618 5.034-2.795 7.627-4.092l1.438-1.687L676 687c3.856-.28 7.305-.182 11 1l1 5 2-1v2l3 1 3 2c.512 2.383.512 2.383.688 5.125l.199 2.758L697 707h2l1.438 1.5L702 710h3l-1 5h2v2h2l.402 2.738.535 3.574.528 3.551c.456 3.153.456 3.153 1.535 6.137h-2l.438 2.188L710 738l.625 2.688L711 743l-1 2 3 2-1 7c3.615.86 5.752 1.069 9.375.063L724 753v3c-19.22 9.735-38.619 18.934-58.415 27.43-7.49 3.217-14.918 6.515-22.273 10.027-3.163 1.474-6.353 2.846-9.567 4.205-5.79 2.459-11.217 4.989-16.343 8.678-3.2 2.211-6.547 4.133-9.902 6.097-5.854 3.47-11.309 7.142-16.5 11.563l-2.367 2c-8.242 7.134-12.91 13.717-16.633 24-1.227 3.694-1.217 7.121-1 11 .615 2.813 1.468 5.519 2.375 8.25l.672 2.14c1.035 3.217 2.067 5.782 3.953 8.61l-1 3-11-5v-2l-2.078-.715c-10.683-4.699-21.014-13.637-27.883-22.941-5.706-8.57-9.846-17.663-10.789-27.969-.389-6.336.054-10.678 2.75-16.375l1.48-3.309c3.57-7.721 7.854-14.32 13.52-20.691l2.45-2.812c4.257-4.8 8.58-9.325 13.5-13.446 2.36-2.006 4.6-4.125 6.862-6.242 4.213-3.806 8.594-6.845 13.43-9.8 2.855-1.76 5.624-3.607 8.383-5.513l2.477-1.707c2.012-1.35 2.012-1.35 2.898-3.48-7.84 4.4-7.84 4.4-15.312 9.375-4.324 2.614-8.754 2.65-13.688 2.813-4.961-.058-9.332-1.632-14-3.188h-3l-1-2-2 1-2-2-2 1v-2l-1.863-.148-2.45-.227c-.8-.07-1.6-.14-2.425-.21C531 745 531 745 528 743l-3-1v-2l-3 1-2-1v-2l-1.625-.687c-3.186-1.761-5.65-3.891-8.375-6.313l-1-2-3-1-1-4-3-1-1-3c-1.875-2.209-1.875-2.209-4-4h-2c-1.625-1.312-1.625-1.312-3-3v-3l-3-1-1-6-3-1c-5.833-6.504-7.692-16.753-10-25l-.582-2.035c-.698-3.28-.418-6.622-.418-9.965l-.512-1.934c-.589-2.493-.504-4.578-.3-7.129l.167-2.597L474 651c2.05-1.809 2.05-1.809 4-3"/>
<path fill="#6A61A8" d="M474 535h2c-.26 2.343-.6 4.677-1 7l-2 2v3a299 299 0 0 1-1 6l2 1-2 2v3h-2l.563 2.938L471 565l-1 1c-1.257 9.547-1.124 19.204-1.062 28.813q.008 2.079.013 4.158.018 5.014.049 10.029h2q1.472 5.092 2.938 10.188l.841 2.908.81 2.822.747 2.587c.664 2.495.664 2.495 1.13 5.05.543 2.487 1.334 4.379 2.503 6.633l1.216 2.346L482.5 644l1.366 2.565C492.916 663.285 504.63 677.6 519 690a184 184 0 0 1 5 5c-4.841-1.467-8.56-4.351-12-8v-2l-1.645-.633c-3.245-1.884-5.55-4.487-8.043-7.242l-1.59-1.74c-5.614-6.236-11.088-12.789-15.269-20.084-1.932-3.06-4.385-4.46-7.453-6.301-1.556 1.205-1.556 1.205-3 3-.614 2.363-.614 2.363-.75 4.938l-.234 2.59c-.016 2.393.395 4.172.984 6.472-.005 1.605-.05 3.21-.125 4.813-.049 4.772 1.036 7.854 3.125 12.187q.785 2.52 1.5 5.063c1.127 3.903 2.573 7.346 4.5 10.937l1 3c2.015.733 2.015.733 4 1v6l1.875.125L493 710c1.25 3.063 1.25 3.063 2 6l3-1 .313 1.938L499 719l3 1 1 3 1.563 1.563L506 726v2l1.688.188c3.277 1.151 4.932 3.315 7.312 5.812l2.813 2.188L520 738v2h5v2h5l1 2c2.676.619 2.676.619 5.813 1 3.809.52 6.846 1.058 10.187 3v2l7-1 1 2c6.127 1.857 13.156 1.487 19.355.043 4.987-1.967 9.299-5.13 13.704-8.145L591 741h2l-1 3c-1.455 1.271-1.455 1.271-3.316 2.523l-2.069 1.407-2.178 1.445-2.095 1.422c-11.667 7.872-11.667 7.872-16.434 10.244-2.398 1.205-4.362 2.738-6.47 4.396l-2.317 1.81c-2.086 1.665-2.086 1.665-3.695 3.347-3.419 3.371-7.805 5.352-12.364 6.656L538 778v-2l-2.125.125c-5.553-.241-9.986-2.68-14.875-5.125a505 505 0 0 0-6-2 87 87 0 0 1-4-2v-2l-1.625-.312c-5.322-1.541-9.875-4.559-14.437-7.625l-3.036-2.028c-2.73-1.915-5.322-3.923-7.902-6.035l-2.02-1.598-1.793-1.465-1.832-1.472L477 743v-3l-3 1-2-3c-2.543-3.196-4.59-5.727-8-8l-1-3.562-1-3.438-3-1v-3h-2c-1.61-3.65-2.449-7.05-3-11l-3-1v-3l-2-2 1-2h-2l-5-17h-2l.625-1.687c.583-2.387.583-2.387-.562-4.813L440 674v-4h-2l.125-2.062c-.004-3.003-.004-3.003-1.062-6-1.57-5.136-2.15-10.58-2.063-15.938.984-2.867.984-2.867 2-5l-1-1c-.073-2.978.004-5.944.063-8.922.031-3.037.031-3.037-.622-5.793-.61-3.164.546-5.247 1.559-8.285.346-4.07.303-8.092-1-12h2l-.187-3.5c-.009-4.747 1.251-8.182 3.187-12.5l2-2 1-3h2c.56-2.724 1.069-5.439 1.5-8.187C448 573 448 573 449 571h2l.25-3.25.75-3.75a91 91 0 0 1 4-4c1.268-3.134 1.268-3.134 2-6h2l1.188-3.75c1.163-3.126 1.901-4.337 4.375-6.75L468 542h2l.313-1.812C471 538 471 538 472.438 536.25z"/>
<path fill="#1A5857" d="M645 412h2c.315 1.256.63 2.511.953 3.805 3.446 13.58 7.042 24.343 15.339 35.752l1.442 2.002 1.32 1.79C667 457 667 457 667 460l1.71.695c2.898 1.652 4.704 3.688 6.915 6.18l2.352 2.617C680 472 680 472 681.023 474.195L682 476c1.316.7 2.653 1.362 4 2a153 153 0 0 1 5 4.563c5.675 5.275 11.723 9.898 18 14.437l4.691 3.418q2.466 1.793 4.934 3.582l2.408 1.747 2.256 1.628 2.022 1.46c1.69 1.224 1.69 1.224 3.689 2.165v2l1.766.348c2.4.7 3.963 1.634 5.984 3.09l1.86 1.308L740 519v2l2 .602c4.213 1.963 7.458 4.793 11 7.773l2.263 1.885A397 397 0 0 1 775 549l1.694 1.605c1.475 1.426 2.895 2.907 4.306 4.395v2h2c2.125 2.375 2.125 2.375 4 5v2h2c2.608 3.474 4.74 7.293 7 11q1.122 1.755 2.25 3.508c4.12 6.497 7.628 12.98 10.375 20.18l.787 2.033c.989 2.747 1.654 4.816 1.236 7.736L810 610h2l-1 5h2c2.71 18.37 2.103 35.036-3.812 52.813l-.752 2.33c-1.732 5.22-3.877 9.988-6.436 14.857l-2-1 .621-1.652c1.92-5.372 3.333-10.607 3.379-16.348l-1-3h2v-2h-2l1-6h-2l.25-2.125c-.045-3.07-.045-3.07-2.187-5.937L798 644l-.437-2.062c-.894-3.078-3.309-4.74-5.563-6.938l-1-3-2-2a503 503 0 0 1-2-6 201 201 0 0 0-3-6l-.875-2.25L782 614l-2.562-1-2.438-1c-.687-2.062-.687-2.062-1-4l-2-1c-.625-2.062-.625-2.062-1-4l-2.187-.25c-3.416-.91-5.194-2.407-7.813-4.75l-1.75-1.562C760 595 760 595 759 592h-3l-.75-2.875L754 586c-2.001-1.42-2.001-1.42-4-2v-5l-2.875-.25L744 578a90 90 0 0 1-2-4c-2.484-.663-2.484-.663-5-1l-2-2v-3c-1.614 1.217-1.614 1.217-3 3-.108 2.131-.108 2.131.375 4.375.518 3.513.708 6.179-.375 9.625-1.062 2.313-1.062 2.313-2 4h-1l-.256-1.658c-4.278-26.833-15.665-46.897-32.63-67.807a624 624 0 0 0-5.98-7.044C669.747 488.684 653.918 463.197 648 432l-.898-4.465C645 416.886 645 416.886 645 412"/>
<path fill="#6CC4BD" d="M860 528h3c2 2 2 2 3.07 5.336q.538 2.016 1.055 4.039c.182.673.364 1.346.55 2.04.876 3.343 1.325 6.1 1.325 9.585l3 1c4.835 29.824 4.588 59.878-4 89l-.895 3.07c-5.035 16.757-11.955 32.15-20.855 47.18l-1.104 1.878c-2.056 3.394-4.21 6.2-7.146 8.872l-1-2c.89-2.355.89-2.355 2.25-5.187l1.406-2.989L842 687c1.814-3.943 3.345-7.676 4-12-3.56.667-6.206 2.172-9.312 4-4.331 2.401-7.664 3.81-12.688 4l-1.992.148c-4.92.242-7.704-.996-12.008-3.148-3.279.211-3.279.211-6 1l1.25-3.687c7.082-21.28 9.393-40.04 7.75-62.313h-2l1-5h-2v-23h2l-1-3h2l1-3c2.438-1.687 2.438-1.687 5-3h2l1-3 3-1 1-2h2l1-2 1.75-.25c2.282-.562 2.282-.562 3.555-2.145l1.32-1.668L838 563h2l2-5h3v-4h2l-.187-2.25c.187-2.75.187-2.75 1.5-4.937 1.983-2.131 4.089-3.514 6.687-4.813l.875-2 1.125-2c2.125-.75 2.125-.75 4-1l-.5-3.375C860 530 860 530 860 528"/>
<path fill="#6A61A8" d="M332 530c2.375.75 2.375.75 5 2 1.035 1.8 1.035 1.8 2 4l1.035 2.184c.34.743.678 1.487 1.027 2.254l1.036 2.246c.902 2.316.902 2.316 1.34 4.754.677 3.088 1.938 5.38 3.5 8.125 4.68 8.291 4.68 8.291 6.062 12.437l2 2c.688 2.5.688 2.5 1 5l-1 2h2v3h2c2.32 2.42 3.368 4.886 4.438 8 1.245 3.541 2.752 5.462 5.562 8l2 4 2.125 2.125L375 604v2h2v2h2c1.101 8.356 1.1 16.588 1 25h2c1.094 2.187 1.296 3.77 1.578 6.191 3.57 28.766 13.876 55.2 31.324 78.47A154 154 0 0 1 418 722v2l2 2-2 2c-.458 1.972-.458 1.972-.625 4.125L417 736l3 1v2a46.6 46.6 0 0 0 7.813 5.625L430 746v2l2.063.625c3.853 1.804 7.015 4.276 9.937 7.375v2h2v2l4 2-3 1c-2.312-1.371-2.312-1.371-5-3.437l-2.98-2.258L434 755a1397 1397 0 0 0-5.312-3.812c-6.116-4.45-12.058-9.107-17.97-13.82a955 955 0 0 0-3.412-2.705 969 969 0 0 1-4.681-3.726c-.895-.712-1.79-1.425-2.71-2.16L398 727v-2h-2a117 117 0 0 1-5-5c-.452-.475-.903-.95-1.369-1.438-10.082-10.655-19.43-21.596-27.756-33.687l-1.761-2.553-1.622-2.392-1.457-2.15L356 676v-2h-2l-1.254-2.547c-1.5-2.966-3.06-5.89-4.652-8.807C339 645.93 339 645.93 339 640h-2c-7.323-24.677-12.422-48.77-13.75-74.562l-.135-2.576c-.45-11.026-.45-11.026 1.885-15.987l1-1.875.438-2.25c.763-3.731 1.966-7.29 3.562-10.75z"/>
<path fill="#6BC3BC" d="M676 687c3.856-.28 7.305-.182 11 1l1 5 2-1v2l3 1 3 2c.512 2.383.512 2.383.688 5.125l.199 2.758L697 707h2l1.438 1.5L702 710h3l-1 5h2v2h2l.402 2.738.535 3.574.528 3.551c.456 3.153.456 3.153 1.535 6.137h-2l.438 2.188L710 738l.625 2.688L711 743l-1 2 3 2-1 7c3.615.86 5.752 1.069 9.375.063L724 753v3c-16.273 8.243-32.635 16.366-49.375 23.625l-2.247 1.002c-4.47 1.896-8.447 2.748-13.28 3.144-2.98.325-5.65 1.242-8.473 2.229-6.52 2.115-12.782 3-19.625 3-.7-3.153-1-5.727-1-9h3l-3-1c-.687-2.062-.687-2.062-1-4l-2 1v-4h3c-.664-2.833-.664-2.833-2-6l-2.562-2.437L623 761c-.687-3.75-.687-3.75-1-7l-2-1v-8l-3 1-3-2v-2l-2-1-3-2-2-1v-2l-3-1 1.594-.971c19.24-11.746 38.02-24.064 56.226-37.358l1.86-1.347 1.687-1.228c2.412-1.619 5.037-2.798 7.633-4.096l1.438-1.687z"/>
<path fill="#A2D1BF" d="M666 207h2c4.855 8.697 9.403 17.412 13.063 26.688l.904 2.245c1.595 4.176 2.37 7.523 2.033 12.067h2l.805 3.29 1.07 4.335.527 2.16c1.027 4.143 2.186 8.182 3.598 12.215h-2q.214 2.625.438 5.25c.08.975.162 1.95.246 2.953.24 2.699.24 2.699.851 4.879.532 2.193.527 4.103.465 6.356-.044 3.332.162 6.314 1 9.562h-3l-2 3-2 1v-2h-2c-2.055 5.205-2.88 10.425-3 16 .292 1.343.63 2.676 1 4 1.683 9.314 2.575 18.531 2 28l-1 2a100 100 0 0 0 0 5h-2l1 1.938c1.145 3.505 1.116 6.326.973 9.976-.076 2.283-.076 2.283 1.027 5.086a85 85 0 0 1-.086 5.148l-.133 3.047-.156 3.18-.133 3.156c-.54 11.733-.54 11.733-2.554 15.406-1.25 2.75-1.074 5.082-.938 8.063l-3-1v2l2 1v26h-3l.375 2.188L676 444c-2.625 2.938-2.625 2.938-6 5-3.44-.481-5.316-1.482-8.062-3.562-3.625-4.56-6.45-9.298-7.75-15L654 428h-2l-1-3-2-1c-1.268-4.296-2-7.51-2-12h-2c-.794-38.88 5.748-72.248 17.904-109.175 8.066-24.548 12.213-49.871 7.807-75.669-1.088-4.83-2.44-9.565-3.906-14.293C666 210 666 210 666 207"/>
<path fill="#3F9490" d="M719 642c2.938.813 2.938.813 6 2l1 3 1 2h2l1 6h2c1.606 1.927 2.878 3.756 4 6h2c1 6.75 1 6.75 1 9l1.898.266L743 671c.977 1.672.977 1.672 1.625 3.75l.723 2.188L746 679c1.348 3.514 1.348 3.514 3.125 6.813 1.359 3.396.996 6.548.875 10.187h2v8h2l-.625 1.75L753 708c.85 2.033.85 2.033 2 4l.5 2.188.5 1.812 2 1c.074 3.343.065 5.804-1 9h3v2h3l-1 3-2 1a403 403 0 0 0-4.062 3.375c-4.67 3.765-9.532 7.112-14.563 10.375l-2.133 1.392c-4.61 2.956-9.237 5.622-14.242 7.858l-2-1-2.187 1c-2.813 1-2.813 1-6.625.625L711 755c-.125-5.75-.125-5.75 1-8l-3-2 .625-2.187c.615-2.842.615-2.842-.687-5.438-.31-.784-.62-1.567-.938-2.375l2-3c-.309-2.221-.309-2.221-1-5-.388-3.328-.695-6.663-1-10h-2v-2h-2l-1-4-2 1-2-5h-2l-.227-2.082c-.402-2.76-.864-5.28-1.773-7.918-2.834-2.043-2.834-2.043-6-3-1.91-1.646-2.875-2.75-4-5-3.349-.848-3.349-.848-7-1-3.09 1.06-5.442 2.99-8 5l-2-1c4.741-4.285 9.482-8.566 14.313-12.75A146 146 0 0 0 691 671a169 169 0 0 1 9.352-8.844c5.275-4.652 9.508-9.227 13.246-15.258L715 645l3-1z"/>
<path fill="#9482D2" d="M355 467c3.122 3.538 4.659 6.498 6 11l1.063 1.938c1.334 2.936 1.539 5.876 1.937 9.062.276 2.288.276 2.288 1 4l3 1-.621 2.168c-.573 2.835-.573 2.835.398 5.508l1.16 2.637 1.153 2.675L371 509h1v7h2v5h2l.367 1.898.508 2.477.492 2.46c.5 2.352.5 2.352 2.633 4.165l.938 3.563L382 539l3 1c.879 2.293.879 2.293 1.563 5.188l.753 3.007L388 551c.885 3.415.885 3.415 2 6l3 2-1 1 .5 1.938.5 2.062-1 2a97 97 0 0 0-.437 4.188c-.417 4.15-1.297 7.844-2.563 11.812l2 1-1.25 3.375c-5.006 15.278-6.699 30.651-7.75 46.625h-2l-.184-3.105-.253-4.082-.12-2.042c-.184-2.91-.433-5.722-1.005-8.583-.53-2.647-.104-4.597.562-7.188h-2v-2h-2a283 283 0 0 1-5-5h-1l-.812-3.375L367 594l-3-2a101 101 0 0 1-3-6l-1.187-2.25C359 582 359 582 359 580h-2v-3h-2l.25-2.125c-.05-3.061-.05-3.061-2.125-5.937L351 566a136 136 0 0 1-2-4l-.965-1.93q-1.012-2.026-2.02-4.054a205 205 0 0 0-2.702-5.141c-1.378-3.017-1.886-5.6-2.313-8.875-.369-2.232-.369-2.232-1-4l-2-1-.312-1.875L337 533c-2.48-1.771-2.48-1.771-5-3l-1 3-3 9h-2l.527 1.547c.64 3.323.316 6.336.036 9.703l-.31 3.828L326 560h-1c-.03-3.604-.047-7.208-.062-10.812l-.026-3.045C324.86 529.604 328.26 514.795 333 499l.852-2.848c.65-2.072 1.39-4.117 2.148-6.152l2-1c.69-1.311 1.37-2.63 2.004-3.969 2.17-4.426 4.621-8.712 6.996-13.031h2v-2z"/>
<path fill="#9482D2" d="M478 648c6.156 3.79 9.48 7.963 13.152 14.129 3.074 4.776 6.98 8.736 10.848 12.871a759 759 0 0 1 5.492 6.406c1.617 1.828 1.617 1.828 4.508 3.594v2l1.625.688C516 689 516 689 518.938 691.5c2.772 2.526 2.772 2.526 5.402 3.41 3.146 1.29 5.538 3.023 8.285 5.028 21.9 15.511 46.21 26.079 71.375 35.062-2.893 3.068-6.163 5.262-10 7l-2.297.336c-4.357 1.07-7.743 3.861-11.355 6.426-3.135 2.129-5.255 3.219-9.043 4.008L568 753l-2.187.168c-5.674.061-10.443-1.378-15.813-3.168h-3l-1-2-2 1-2-2-2 1v-2l-1.863-.148-2.45-.227c-.8-.07-1.6-.14-2.425-.21C531 745 531 745 528 743l-3-1v-2l-3 1-2-1v-2l-1.625-.687c-3.186-1.761-5.65-3.891-8.375-6.313l-1-2-3-1-1-4-3-1-1-3c-1.875-2.209-1.875-2.209-4-4h-2c-1.625-1.312-1.625-1.312-3-3v-3l-3-1-1-6-3-1c-5.833-6.504-7.692-16.753-10-25l-.582-2.035c-.698-3.28-.418-6.622-.418-9.965l-.512-1.934c-.589-2.493-.504-4.578-.3-7.129l.167-2.597L474 651c2.05-1.809 2.05-1.809 4-3"/>
<path fill="#0D222B" d="M557 215h2c-3.473 16.411-17.35 32.645-28 45-.808.991-1.616 1.983-2.45 3.004-6.617 8.052-13.829 15.489-21.175 22.871l-1.507 1.522a966 966 0 0 1-4.282 4.283l-2.53 2.523L497 296h-2v2c-1.645 1.691-1.645 1.691-3.812 3.563l-2.145 1.878C487 305 487 305 484 306v2c-1.645 1.691-1.645 1.691-3.812 3.563l-2.145 1.878C476 315 476 315 473 316v2c-2.875 2.625-2.875 2.625-6 5h-2v2c-2.875 2.625-2.875 2.625-6 5h-2v2c-1.398 1.41-1.398 1.41-3.375 3.063-4.212 3.567-8.277 7.27-12.328 11.019C439 348 439 348 436.766 349.074L435 350l-1 3c-1.496 1.473-1.496 1.473-3.437 3.063-5.768 4.893-11.777 10.093-16.231 16.238L413 374h-2l-.684 1.648c-1.728 3.088-3.962 5.397-6.378 7.977-3.353 3.417-3.353 3.417-5.938 7.375h-2l-.937 1.875L393 397h-2l-.75 1.75c-1.417 2.55-3.126 4.268-5.25 6.25v-3a88 88 0 0 1 4.313-5.875l1.341-1.708A598 598 0 0 1 395 389l1.521-1.878q2.226-2.729 4.479-5.435l1.42-1.724c1.148-1.36 2.359-2.667 3.58-3.963h2l.625-2.187c1.474-3.015 3.175-4.524 5.797-6.567 3.434-2.712 6.284-5.894 9.078-9.246 4.381-5.257 9.348-9.667 14.563-14.062 4.76-4.005 4.76-4.005 9.246-8.31L449 334h2l.719-1.77c1.56-2.714 3.285-4.034 5.781-5.918 4.726-3.647 9.114-7.545 13.469-11.625L473 313h2v-2h2v-2c1.398-1.41 1.398-1.41 3.375-3.062 4.283-3.626 8.409-7.4 12.523-11.215L495 293h2l.688-1.75c1.65-2.83 3.745-4.233 6.312-6.25a263 263 0 0 0 4-5 283 283 0 0 1 5-5l2.5-2.5a381 381 0 0 1 4.766-4.687C535.413 252.233 546.494 233.864 557 215"/>
<path fill="#AF9EDF" d="M589 134c1.773.207 1.773.207 4 1 1.79 2.012 1.79 2.012 3.625 4.688l2.117 3.05L601 146l3.523 4.714C609.32 157.208 613.48 164 617.5 171l1.565 2.716c2.452 4.342 4.598 8.446 5.935 13.284h-2l-2-2c-1.903-1.657-1.903-1.657-4-3h-13l-4 1-2 13h-1l.048-2.392c.685-30.572.685-30.572-8.048-59.608"/>
<path fill="#0D222B" d="M932 557h2c-4.03 39.936-25.798 82.357-47.738 115.26-1.555 2.144-3.289 3.976-5.262 5.74l-1-2c.777-1.945.777-1.945 1.938-4.125l1.152-2.195.91-1.68h2l.813-2.75c1.118-3.062 2.251-4.7 4.187-7.25a155 155 0 0 0 2.625-4.75 439 439 0 0 1 5.625-10.21l1.189-2.088a944 944 0 0 1 2.313-4.03c2.758-4.843 5.04-9.809 7.248-14.922q1.055-2.35 2.113-4.7c7.172-16.155 12.92-32.637 16.646-49.936.783-3.625 1.747-6.966 3.241-10.364"/>
<path fill="#0D222B" d="M828 735h2c-3.217 7.672-11.697 12.847-18.062 17.813A644 644 0 0 1 805 758l-1.886 1.402C775.448 779.851 775.448 779.851 763 784l-1-2 2.082-1.242 5.438-3.25A156 156 0 0 0 775 774h3v-2c1.557-1.157 1.557-1.157 3.727-2.426l2.378-1.416 2.52-1.47c5.525-3.24 10.548-6.476 15.375-10.688q1.71-1.37 3.438-2.719l1.773-1.386 3.578-2.79 1.774-1.386 1.734-1.356c1.706-1.365 3.36-2.78 5.015-4.207L822 740h2l1-3zM876 682h2c-1.439 4.324-3.6 7.185-6.562 10.625q-1.373 1.605-2.743 3.21l-1.385 1.617c-1.883 2.226-3.684 4.516-5.497 6.798-9.034 11.051-18.917 21.52-29.813 30.75l-2-2a91 91 0 0 1 4-4h2v-2c1.477-1.252 2.958-2.502 4.492-3.684 1.776-1.434 1.776-1.434 3.508-4.316h2l.781-1.734c1.333-2.477 2.87-4.4 4.719-6.516l1.844-2.14L855 707h2l.742-1.68c1.51-2.785 3.35-5.015 5.383-7.445 3.848-4.62 7.579-9.31 11.246-14.074zM817 217a56.5 56.5 0 0 1 7 4v2l1.771.81c14.726 7.865 28.162 25.1 38.229 38.19q1.54 1.915 3.09 3.82l3.285 4.055 1.554 1.913c2.635 3.28 5.01 6.526 7.071 10.212-2.187-.5-2.187-.5-5-2-1.128-1.777-2.243-3.564-3.29-5.39-2.71-4.136-6.013-7.743-9.266-11.459-2.714-3.11-5.307-6.215-7.694-9.589-2.604-3.625-5.745-6.326-9.21-9.117L843 243v-2l-4-2v-2l-1.832-.8c-2.277-1.26-3.294-2.339-4.856-4.387-3.006-3.682-6.423-6.36-10.261-9.137-2.094-1.711-3.526-3.454-5.051-5.676M274 588l2 1c.93 2.117.93 2.117 1.875 4.875l1.04 2.988L280 600a3316 3316 0 0 0 3.266 8.785C284 611 284 611 284 613h2c.182.568.364 1.137.55 1.723 1.236 3.794 2.5 7.51 4.137 11.152C292 629 292 629 292 632l2 1a139 139 0 0 1 3.625 6.938l.984 1.958C301 646.733 301 646.733 301 649h2c.7 1.264 1.384 2.537 2.063 3.813l1.16 2.144L307 657l-1 3c-11.12-17.886-20.142-36.679-27.75-56.312l-1.305-3.362C274 592.52 274 592.52 274 588"/>
<path fill="#9281D0" d="M589 134c1.875.354 1.875.354 4 1 2 2.328 2 2.328 4 5.25 2.024 2.925 3.983 5.73 6.313 8.422L605 151l-1 3-3-1c-2.143.39-2.143.39-4 1l1 2c.07 1.54.085 3.083.063 4.625l-.028 2.477L598 165h-1l-.411-1.984q-.943-4.51-1.902-9.016l-.646-3.121c-1.252-5.869-2.765-11.325-5.041-16.879"/>
<path fill="#6CC4BD" d="M666 207h2c3 5.625 3 5.625 3 9a83 83 0 0 0 1.813 4.688c1.819 4.408 3.53 8.84 5.187 13.312h-2c-1.093 4.584-1.323 9.125-1.562 13.813l-.131 2.388q-.158 2.9-.307 5.799h-1l-.104-2.177c-.714-13.88-1.822-26.99-5.873-40.323C666 210 666 210 666 207"/>
<path fill="#0D222B" d="M939 512h2c.247 7.69-.702 14.97-1.875 22.563l-.527 3.576c-.915 6.055-1.977 11.955-3.598 17.861h-2c.677-9.477 2.105-18.807 3.563-28.187l.708-4.62q.86-5.596 1.729-11.193M881 952l2 2-1.617.445c-7.457 2.245-14.137 5.384-19.758 10.875-3.72 4.053-3.72 4.053-6.625 8.68l-3-1c2.82-5.697 5.658-10.186 10.875-13.937 5.493-3.511 11.537-6.482 18.125-7.063M273 375l2 4h-2l1 3h-2l-.148 2.16c-.431 5.52-.927 10.63-2.852 15.84l-2 1 1 4h-2l.563 1.688c.956 5.058-1.377 10.69-2.625 15.625l-.565 2.244L262 430h-1a145.5 145.5 0 0 1 3.188-21.875l.65-2.96C267.135 394.989 270 384.99 273 375"/>
<path fill="#E8A93C" d="M520 596c3.125.375 3.125.375 6 1 1.125 2.813 1.125 2.813 2 6l-2 3c-2.375.938-2.375.938-5 1-2.375-1.625-2.375-1.625-4-4 .125-2.625.125-2.625 1-5z"/>
<path fill="#6A61A8" d="M559 717c5.296 1.612 10.18 3.862 15.188 6.188 9.758 4.472 19.69 8.251 29.812 11.812l-3 3-2-1v-2l-2.812-.187c-4.273-.634-7.79-2.293-11.665-4.149a305 305 0 0 0-8.609-3.89l-2.728-1.196a907 907 0 0 0-5.456-2.367l-2.546-1.125-2.296-.999C561 720 561 720 559 717"/>
<path fill="#E8A93C" d="M675 596c3.125.375 3.125.375 6 1 1.125 2.813 1.125 2.813 2 6l-2 3c-2.375.938-2.375.938-5 1-2.375-1.625-2.375-1.625-4-4 .125-2.625.125-2.625 1-5z"/>
<path fill="#0D222B" d="M626 141c8.551-.277 16.585.48 25 2v1c-5.376.849-9.654 1.002-15 0l-1 9c-3.255-3.165-6.32-6.328-9-10z"/>
<path fill="#E8A93C" d="M598 518c3.042.285 4.39 1.26 7 3 .188 3.125.188 3.125 0 6l-7 2c-1.5-1.187-1.5-1.187-3-3-.375-2.5-.375-2.5 0-5 1.25-1.875 1.25-1.875 3-3M598 673c3.188.375 3.188.375 6 1l1 7c-3 2-3 2-5.562 2.313L597 683c-2-3-2-3-2.312-5.562L595 675z"/>
<path fill="#0D222B" d="M877 283c1.795.215 1.795.215 4 1 1.66 1.974 1.66 1.974 3.277 4.559l1.807 2.86 1.854 3.019 1.841 2.912A183 183 0 0 1 900 316c-1.89-.812-1.89-.812-4-2-1.75-3-1.75-3-3-6v-2l-2-1a95 95 0 0 1-3.125-4.937l-1.633-2.715C885 295 885 295 885 293h-2c-1.508-2.187-1.508-2.187-3.125-5l-1.633-2.812zM925 950c1.785.277 1.785.277 4 1 7.481 6.711 11.974 15.26 15.3 24.582.7 2.418.7 2.418.7 5.418h-2l-.953-2.344c-5.07-12.34-5.07-12.34-12.047-23.656l-2-1v-2l-3-1zM836 967l1 3a91 91 0 0 1-2 4.875c-2.546 7.048-2.025 13.525-1.383 20.914l.219 2.649.236 2.37c-.083 2.536-.796 4.026-2.072 6.192-2.375-10.717-2.624-21.002.438-31.625.957-2.939 2.13-5.636 3.562-8.375M888 952c13.96.757 13.96.757 20 4 3.558 2.784 6.801 5.813 10 9 .59.588 1.18 1.176 1.79 1.781L921 968l-1 3-1.18-1.54c-4.524-5.566-9.185-9.615-15.82-12.46-3.718-.965-7.404-1.723-11.191-2.36-.927-.21-1.854-.422-2.809-.64zM898 317h3c13 24.194 13 24.194 13 28l-3-1c-1.426-2.377-1.426-2.377-2.883-5.496l-1.597-3.381-1.645-3.56-1.668-3.55a1599 1599 0 0 1-3.04-6.507A181 181 0 0 0 898 317M940 477h2v31l-3-1z"/>
<path fill="#0D232B" d="M569 167h2c.334 6.12-.328 11.8-1.375 17.813l-.382 2.245c-.656 3.6-1.34 6.79-3.243 9.942-1.017-3.944-.9-6.954-.223-10.957l.557-3.37.604-3.486.591-3.544q.724-4.324 1.471-8.643"/>
<path fill="#0D222B" d="M635 153c4.007 2.894 6.316 5.884 9 10l3 2q.53 2.494 1 5c1.35 2.316 1.35 2.316 3 4.5 2.333 3.186 3.447 5.573 4 9.5-2.363-2.2-4.045-4.46-5.742-7.203l-1.543-2.473-1.59-2.574c-4.323-6.988-4.323-6.988-9.008-13.734L635 155zM865 1024c2.205.48 4.16 1.07 6.234 1.973 8.215 3.559 15.999 3.79 24.766 3.027 3.775-.744 7.376-1.71 11-3-1.56 1.806-2.995 2.997-5.082 4.168-4.21 1.2-8.247 1.171-12.606 1.145l-2.708-.009c-8.042-.127-14.462-1.637-21.604-5.304z"/>
<path fill="#0D222B" d="M807 439c6 4.956 11.809 10.192 17 16v2h2c1.762 1.645 1.762 1.645 3.688 3.813l1.949 2.144L833 465l-1 3c-10.642-11.547-10.642-11.547-14.75-16.312-2.819-3.27-5.828-6.278-8.965-9.243L807 441zM568 141l2 3c.125 3.188.125 3.188 0 6l-3-1v-4c-7.04-.939-13.903-1.108-21-1v-1q3.53-.509 7.063-1c.656-.095 1.313-.19 1.99-.29 4.348-.599 8.564-1.06 12.947-.71M697 288c4.273 6.41 5.744 12.816 7.254 20.305L705 311l2 1c1.944 3.887 2.495 7.71 3 12-2.508-3.039-3.89-5.916-5.227-9.613l-1.187-3.283-1.211-3.416-1.234-3.381c-1.95-5.445-3.658-10.531-4.141-16.307M897 937c9.209.594 16.422 3.143 24.125 8.25 1.298.907 2.592 1.82 3.875 2.75l-2 1c-2.066-.855-2.066-.855-4.562-2.187-6.99-3.626-13.79-6.86-21.438-8.813z"/>
<path fill="#0D222B" d="M786 419c4.42 3.033 8.403 5.98 12 10l1 3a89 89 0 0 0 4 2c1.75 1.625 1.75 1.625 3 3l-1 2q-2.596-2.341-5.187-4.687l-2.918-2.637A239 239 0 0 1 789 424l-2.312-2.312L785 420zM710 324c2.438 1.688 2.438 1.688 5 4l.402 2.2c.945 4.425 3.528 8.003 5.891 11.804.974 1.624 1.848 3.308 2.707 4.996l-1 3q-2.421-3.96-4.812-7.937l-1.37-2.229c-3.055-5.107-5.176-10.115-6.818-15.834"/>
<path fill="#102E35" d="M645 412h2q1.006 3.904 2 7.813l.578 2.236c.775 3.056 1.422 5.785 1.422 8.951h-3q-.757-3.624-1.5-7.25l-.434-2.066c-.679-3.33-1.066-6.267-1.066-9.684"/>
<path fill="#0D222B" d="M533 146c-2 2-2 2-4.207 2.598l-2.606.464-2.582.473L521 150c-3.977.765-7.891 1.702-11.816 2.695-2.381.333-3.893-.057-6.184-.695 4.06-1.01 8.124-2.006 12.188-3l3.486-.867 3.369-.82 3.094-.762c2.706-.52 5.117-.657 7.863-.551M921 971c2 1.375 2 1.375 4 3v2h2c1.1 7.018 1.097 13.906 1 21h-1l-.297-2.965c-.79-6.929-1.628-13.132-4.898-19.398C921 973 921 973 921 971M659 145c6.248.693 12.344 1.796 18.5 3.063l2.781.564q3.36.683 6.719 1.373v1c-9.805.499-18.768-1.816-28-5zM564 197h2c-.587 4.49-1.764 8.225-3.562 12.375-.456 1.06-.91 2.12-1.38 3.21L560 215l-2-1c1.662-5.857 3.47-11.459 6-17M655 184l3 1c1.375 2.438 1.375 2.438 3 6q1.34 2.627 2.688 5.25C666 200.752 666 200.752 666 203h-2a2436 2436 0 0 1-4.5-8.375l-1.3-2.406-1.231-2.305-1.143-2.126C655 186 655 186 655 184M768 402c5.768 4.89 11.395 9.925 17 15l-1 2c-6.137-4.008-11.694-8.68-15.2-15.246zM731 360c3 1 3 1 4.465 2.637l1.472 2.05 1.567 2.168A300 300 0 0 1 744 375l-1 2q-2.158-2.625-4.312-5.25l-2.426-2.953c-3.98-4.92-3.98-4.92-5.262-6.797z"/>
<path fill="#85D4CE" d="M809 591c1.446 2.39 1.999 3.98 2.195 6.797l-.07 2.953-.055 2.984L811 606c-1.823-2.735-3.034-4.88-4-8 .311-2.678.798-4.596 2-7"/>
<path fill="#0D222B" d="M352 451h2c-1.492 4.972-3.605 9.418-6 14l-2-1c1.413-4.827 3.43-8.716 6-13M382 406h2c-1.41 3.039-3.089 5.594-5.125 8.25l-1.633 2.14L376 418l-2-2q1.717-2.22 3.438-4.437l1.933-2.497C381 407 381 407 382 406M751 385c1.875.75 1.875.75 4 2q1.025 1.987 2 4l3 1a95 95 0 0 1 4 5l-1 2a1492 1492 0 0 1-6-5.875l-1.734-1.684c-1.46-1.442-2.867-2.938-4.266-4.441z"/>
<path fill="#0D222B" d="M912 346h3l5 13h-3zM833 1007c3.243 3.73 5.512 8.302 7 13l-1 3a715 715 0 0 1-3-5.75l-1.687-3.234C833 1011 833 1011 833 1007"/>
<path fill="#0D222B" d="M834 469c1.75.625 1.75.625 4 2 2.063 2.813 2.063 2.813 4 6l1.813 2.75L845 482l-1 2a1575 1575 0 0 1-4.437-5.812l-1.276-1.659c-1.898-2.506-3.285-4.523-4.287-7.529M373 418h2c-1.557 4.671-4.084 8.087-7 12l-2-1c1.489-4.601 3.746-7.502 7-11"/>
<path fill="#0D222B" d="M605 826c2.262-.293 2.262-.293 4.688-.187l2.449.082L614 826l1 2-13 1z"/>
<path fill="#0E232C" d="M691 265c1.465 1.645 1.465 1.645 3 4 .441 2.762.441 2.762.563 5.688.082 2.858.082 2.858.437 5.312l2 1-2 3a1606 1606 0 0 1-2-7.25l-.578-2.066C691.5 271.294 691 268.542 691 265"/>
<path fill="#1A343B" d="M757 534c3.239 1.444 5.62 3.258 8.25 5.625l2.14 1.914L769 543l-2 2c-3.596-3.494-6.835-7.111-10-11"/>
<path fill="#0D222B" d="M364 431h2c-1.199 3.083-2.477 6.063-4 9l-3-1q1.176-2.007 2.375-4c.44-.743.882-1.485 1.336-2.25zM286 341l2 3h-2l.25 2.25L286 349c-2 2.313-2 2.313-4 4 .665-4.389 2.188-7.981 4-12M684 242l2 2v3l2 1v6l-2-2v-4h-2c-.562-1.875-.562-1.875-1-4z"/>
<path fill="#6A61A8" d="M589 134c1.875.188 1.875.188 4 1 1.25 2.563 1.25 2.563 2 5l-3 1z"/>
<path fill="#E8A93C" d="M600 553Q607 593 644 600Q607 607 600 647Q593 607 556 600Q593 593 600 553Z"/>
</svg>
